<svg width="28" height="50" viewBox="0 0 28 50" fill="none" xmlns="http://www.w3.org/2000/svg">
<path d="M27.5 17.296C27.5 14.686 25.3343 12.5682 22.6775 12.5682H20.1354V5.65834C21.1883 5.19839 21.9247 4.16089 21.9247 2.95755C21.9247 1.32636 20.5718 0 18.908 0H8.59204C6.92819 0 5.57528 1.32636 5.57528 2.95755C5.57528 4.16089 6.31174 5.19305 7.36461 5.65834V12.5682H4.82246C2.16029 12.5682 0 14.6914 0 17.296V45.2722C0 47.8821 2.16574 50 4.82246 50H22.6775C25.3397 50 27.5 47.8768 27.5 45.2722V39.6674V22.9008V17.2906V17.296ZM8.59204 1.87186H18.908C19.5189 1.87186 20.0154 2.35856 20.0154 2.95755C20.0154 3.55655 19.5189 4.04324 18.908 4.04324H8.59204C7.98105 4.04324 7.48463 3.55655 7.48463 2.95755C7.48463 2.35856 7.98105 1.87186 8.59204 1.87186ZM18.226 5.9151V12.5682H9.27941V5.9151H18.226ZM25.5961 45.2776C25.5961 46.8553 24.2868 48.1335 22.683 48.1335H4.817C3.2077 48.1335 1.90389 46.85 1.90389 45.2776V40.6033H25.5852V45.2776H25.5961ZM25.5961 38.7314H1.90389V23.8421H25.5852V38.7314H25.5961ZM25.5961 21.9702H1.90389V17.296C1.90389 15.7182 3.21315 14.44 4.817 14.44H22.6721C24.2814 14.44 25.5852 15.7236 25.5852 17.296V21.9702H25.5961Z" fill="#BFBE51"/>
<circle cx="14.1654" cy="9.16665" r="0.833333" fill="#BFBE51"/>
</svg>
